<?xml version="1.0" encoding="utf-8"?>
<!-- Generator: Adobe Illustrator 27.5.0, SVG Export Plug-In . SVG Version: 6.00 Build 0)  -->
<svg version="1.1" xmlns="http://www.w3.org/2000/svg" xmlns:xlink="http://www.w3.org/1999/xlink" x="0px" y="0px"
	 viewBox="0 0 750 500" style="enable-background:new 0 0 750 500;" xml:space="preserve">
<g id="BACKGROUND">
	<path style="fill:#E9EAEB;" d="M84.403,0.055c4.348,15.381,23.192,70.698,72.957,87c58,19,120,34,121,101s11,133,64,141
		s109-51,175-11s80,92,166,88c31.618-1.471,52.818-3.211,66.743-4.825V0.055H84.403z"/>
</g>
<g id="OBJECTS">
	<g>
		<g>
			<g>
				
					<line style="fill:none;stroke:#263238;stroke-linecap:round;stroke-linejoin:round;" x1="600.36" y1="243.055" x2="600.36" y2="244.555"/>
				
					<line style="fill:none;stroke:#263238;stroke-linecap:round;stroke-linejoin:round;stroke-dasharray:3.6667,3.6667;" x1="600.36" y1="248.222" x2="600.36" y2="253.722"/>
				<polyline style="fill:none;stroke:#263238;stroke-linecap:round;stroke-linejoin:round;" points="600.36,255.555 
					600.36,257.055 598.86,257.055 				"/>
				
					<line style="fill:none;stroke:#263238;stroke-linecap:round;stroke-linejoin:round;stroke-dasharray:2.8947,2.8947;" x1="595.965" y1="257.055" x2="545.307" y2="257.055"/>
				<polyline style="fill:none;stroke:#263238;stroke-linecap:round;stroke-linejoin:round;" points="543.86,257.055 
					542.36,257.055 542.36,258.555 				"/>
				
					<line style="fill:none;stroke:#263238;stroke-linecap:round;stroke-linejoin:round;stroke-dasharray:2.7273,2.7273;" x1="542.36" y1="261.282" x2="542.36" y2="287.191"/>
				
					<line style="fill:none;stroke:#263238;stroke-linecap:round;stroke-linejoin:round;" x1="542.36" y1="288.555" x2="542.36" y2="290.055"/>
			</g>
		</g>
		<g>
			<g>
				
					<line style="fill:none;stroke:#263238;stroke-linecap:round;stroke-linejoin:round;" x1="354.36" y1="245.055" x2="354.36" y2="246.555"/>
				
					<line style="fill:none;stroke:#263238;stroke-linecap:round;stroke-linejoin:round;stroke-dasharray:2.9333,2.9333;" x1="354.36" y1="249.488" x2="354.36" y2="289.088"/>
				<polyline style="fill:none;stroke:#263238;stroke-linecap:round;stroke-linejoin:round;" points="354.36,290.555 
					354.36,292.055 355.86,292.055 				"/>
				
					<line style="fill:none;stroke:#263238;stroke-linecap:round;stroke-linejoin:round;stroke-dasharray:2.9487,2.9487;" x1="358.809" y1="292.055" x2="469.386" y2="292.055"/>
				
					<line style="fill:none;stroke:#263238;stroke-linecap:round;stroke-linejoin:round;" x1="470.86" y1="292.055" x2="472.36" y2="292.055"/>
			</g>
		</g>
	</g>
	<rect x="290.36" y="113.055" style="fill:#F0AE00;" width="218" height="141"/>
	<g>
		<path style="fill:#0169EE;" d="M102.1,313.305H34.802c-3.346,0-6.058-2.712-6.058-6.058v-8.639c0-3.346,2.712-6.058,6.058-6.058
			H102.1c3.346,0,6.058,2.713,6.058,6.058v8.639C108.158,310.593,105.446,313.305,102.1,313.305z"/>
		<path style="fill:#0169EE;" d="M676.328,80.321h-42.28c-2.71,0-4.907-2.197-4.907-4.907V64.472c0-2.71,2.197-4.907,4.907-4.907
			h42.28c2.71,0,4.907,2.197,4.907,4.907v10.942C681.235,78.124,679.038,80.321,676.328,80.321z"/>
	</g>
	<g>
		<text transform="matrix(1 0 0 1 386.9182 72.7501)" style="fill:#263238; font-family:'Montserrat-Bold'; font-size:10.1891px;">ABOUT</text>
		<g>
			<text transform="matrix(1 0 0 1 32.0044 306.8091)" style="fill:#FFFFFF; font-family:'Montserrat-Bold'; font-size:10.1891px;">LEARN MORE</text>
		</g>
		<text transform="matrix(1 0 0 1 475.9851 72.7501)" style="fill:#263238; font-family:'Montserrat-Bold'; font-size:10.1891px;">CONTACT</text>
		<g>
			<text transform="matrix(1 0 0 1 633.3828 72.7501)" style="fill:#FFFFFF; font-family:'Montserrat-Bold'; font-size:10.1891px;">SIGN UP</text>
		</g>
		<text transform="matrix(1 0 0 1 574.6619 72.7501)" style="fill:#263238; font-family:'Montserrat-Bold'; font-size:10.1891px;">LOG IN</text>
		<text transform="matrix(1 0 0 1 28.7438 160.1608)"><tspan x="0" y="0" style="fill:#263238; font-family:'Montserrat-Bold'; font-size:50px;">Online</tspan><tspan x="0" y="43.622" style="fill:#263238; font-family:'Montserrat-Bold'; font-size:50px;">Training</tspan></text>
		<rect x="28.744" y="220.541" style="fill:none;" width="114.367" height="55.744"/>
		<text transform="matrix(1 0 0 1 28.7442 226.5673)"><tspan x="0" y="0" style="fill:#263238; font-family:'Montserrat-Light'; font-size:8.1219px;">Lorem ipsum dolor sit amet, </tspan><tspan x="0" y="9.746" style="fill:#263238; font-family:'Montserrat-Light'; font-size:8.1219px;">consectetuer adipiscing elit, </tspan><tspan x="0" y="19.493" style="fill:#263238; font-family:'Montserrat-Light'; font-size:8.1219px;">sed diam nonummy nibh </tspan><tspan x="0" y="29.239" style="fill:#263238; font-family:'Montserrat-Light'; font-size:8.1219px;">euismod tincidunt ut </tspan><tspan x="0" y="38.985" style="fill:#263238; font-family:'Montserrat-Light'; font-size:8.1219px;">laoreet dolore magna </tspan></text>
		<text transform="matrix(1 0 0 1 292.8274 71.9147)" style="fill:#263238; font-family:'Montserrat-Bold'; font-size:11.653px;">HOME</text>
	</g>
	<g>
		<g>
			<path style="fill:#263238;" d="M47.891,65.122H30.296c-0.857,0-1.552-0.695-1.552-1.553l0,0c0-0.857,0.695-1.553,1.552-1.553
				h17.595c0.857,0,1.553,0.695,1.553,1.553l0,0C49.444,64.427,48.748,65.122,47.891,65.122z"/>
			<path style="fill:#263238;" d="M47.891,70.658H30.296c-0.857,0-1.552-0.695-1.552-1.552l0,0c0-0.858,0.695-1.553,1.552-1.553
				h17.595c0.857,0,1.553,0.695,1.553,1.553l0,0C49.444,69.963,48.748,70.658,47.891,70.658z"/>
			<path style="fill:#263238;" d="M47.891,76.195H30.296c-0.857,0-1.552-0.695-1.552-1.552l0,0c0-0.857,0.695-1.552,1.552-1.552
				h17.595c0.857,0,1.553,0.695,1.553,1.552l0,0C49.444,75.5,48.748,76.195,47.891,76.195z"/>
		</g>
		<g>
			<path style="fill:#263238;" d="M330.086,80.224H293.83c-0.552,0-1-0.448-1-1c0-0.552,0.448-1,1-1h36.256c0.552,0,1,0.448,1,1
				C331.086,79.776,330.638,80.224,330.086,80.224z"/>
		</g>
	</g>
	<path style="fill:#F0AE00;" d="M649.36,131.055c-21.568,0-39.115,17.547-39.115,39.115s17.547,39.115,39.115,39.115
		s39.115-17.547,39.115-39.115S670.928,131.055,649.36,131.055z M686.361,169.121h-17.078c-0.09-6.795-1.045-13.3-2.767-19
		c3.247-1.586,6.284-3.63,9.021-6.098C682.001,150.494,686.088,159.339,686.361,169.121z M649.36,207.187
		c-4.626,0-9.035-3.753-12.416-10.567c-0.81-1.632-1.531-3.394-2.168-5.257c4.558-1.954,9.504-2.983,14.584-2.983
		c5.079,0,10.026,1.029,14.584,2.983c-0.637,1.862-1.358,3.624-2.168,5.256C658.395,203.434,653.985,207.187,649.36,207.187z
		 M649.36,186.283c-5.3,0-10.463,1.06-15.229,3.074c-1.614-5.439-2.509-11.646-2.597-18.139h35.652
		c-0.088,6.492-0.983,12.699-2.597,18.139C659.823,187.343,654.66,186.283,649.36,186.283z M631.534,169.121
		c0.088-6.486,0.981-12.687,2.592-18.123c4.768,2.016,9.932,3.076,15.234,3.076c5.302,0,10.466-1.06,15.234-3.076
		c1.611,5.436,2.505,11.636,2.593,18.123H631.534z M649.36,133.153c4.625,0,9.035,3.753,12.416,10.567
		c0.812,1.637,1.535,3.404,2.173,5.272c-4.56,1.956-9.508,2.986-14.589,2.986c-5.082,0-10.03-1.03-14.59-2.985
		c0.638-1.868,1.362-3.635,2.174-5.272C640.325,136.905,644.734,133.153,649.36,133.153z M674.007,142.577
		c-2.483,2.219-5.223,4.07-8.147,5.527c-0.651-1.879-1.384-3.662-2.205-5.318c-1.923-3.877-4.195-6.858-6.687-8.846
		C663.422,135.294,669.263,138.334,674.007,142.577z M635.065,142.787c-0.821,1.656-1.555,3.439-2.205,5.318
		c-2.924-1.458-5.664-3.309-8.147-5.528c4.745-4.243,10.585-7.283,17.039-8.637C639.26,135.929,636.988,138.91,635.065,142.787z
		 M623.182,144.023c2.738,2.468,5.774,4.512,9.021,6.098c-1.722,5.7-2.677,12.205-2.767,19h-17.077
		C612.632,159.339,616.718,150.494,623.182,144.023z M612.359,171.219h17.077c0.09,6.801,1.047,13.312,2.772,19.015
		c-3.245,1.585-6.28,3.626-9.017,6.092C616.722,189.854,612.632,181.005,612.359,171.219z M624.723,197.772
		c2.482-2.216,5.22-4.065,8.142-5.521c0.649,1.873,1.381,3.651,2.2,5.303c1.924,3.877,4.195,6.858,6.687,8.846
		C635.302,205.046,629.466,202.01,624.723,197.772z M663.655,197.553c0.819-1.651,1.551-3.429,2.2-5.302
		c2.922,1.456,5.66,3.305,8.142,5.521c-4.743,4.238-10.579,7.275-17.029,8.628C659.46,204.411,661.732,201.429,663.655,197.553z
		 M675.529,196.326c-2.737-2.466-5.772-4.507-9.017-6.092c1.725-5.703,2.682-12.214,2.772-19.015h17.078
		C686.087,181.005,681.998,189.854,675.529,196.326z"/>
	<g>
		
			<rect x="300.592" y="107.06" style="fill:#FFFFFF;stroke:#263238;stroke-linecap:round;stroke-linejoin:round;stroke-miterlimit:10;" width="215.593" height="137.979"/>
		
			<rect x="325.536" y="113.782" style="fill:#FFFFFF;stroke:#263238;stroke-linecap:round;stroke-linejoin:round;stroke-miterlimit:10;" width="177.206" height="91.912"/>
		<g>
			
				<line style="fill:none;stroke:#263238;stroke-linecap:round;stroke-linejoin:round;stroke-miterlimit:10;" x1="446.026" y1="128.488" x2="472.76" y2="128.488"/>
			
				<line style="fill:none;stroke:#263238;stroke-linecap:round;stroke-linejoin:round;stroke-miterlimit:10;" x1="431.577" y1="128.488" x2="443.102" y2="128.488"/>
			
				<line style="fill:none;stroke:#263238;stroke-linecap:round;stroke-linejoin:round;stroke-miterlimit:10;" x1="463.18" y1="134.524" x2="472.76" y2="134.524"/>
			
				<line style="fill:none;stroke:#263238;stroke-linecap:round;stroke-linejoin:round;stroke-miterlimit:10;" x1="431.577" y1="134.524" x2="459.476" y2="134.524"/>
			
				<line style="fill:none;stroke:#263238;stroke-linecap:round;stroke-linejoin:round;stroke-miterlimit:10;" x1="467.858" y1="140.559" x2="472.76" y2="140.559"/>
			
				<line style="fill:none;stroke:#263238;stroke-linecap:round;stroke-linejoin:round;stroke-miterlimit:10;" x1="445.246" y1="140.559" x2="463.374" y2="140.559"/>
			
				<line style="fill:none;stroke:#263238;stroke-linecap:round;stroke-linejoin:round;stroke-miterlimit:10;" x1="431.577" y1="140.559" x2="443.102" y2="140.559"/>
			
				<line style="fill:none;stroke:#263238;stroke-linecap:round;stroke-linejoin:round;stroke-miterlimit:10;" x1="442.518" y1="146.595" x2="472.76" y2="146.595"/>
			
				<line style="fill:none;stroke:#263238;stroke-linecap:round;stroke-linejoin:round;stroke-miterlimit:10;" x1="431.577" y1="146.595" x2="439.789" y2="146.595"/>
		</g>
		<g>
			
				<line style="fill:none;stroke:#263238;stroke-linecap:round;stroke-linejoin:round;stroke-miterlimit:10;" x1="469.807" y1="166.723" x2="472.76" y2="166.723"/>
			
				<line style="fill:none;stroke:#263238;stroke-linecap:round;stroke-linejoin:round;stroke-miterlimit:10;" x1="431.577" y1="166.723" x2="467.078" y2="166.723"/>
			
				<line style="fill:none;stroke:#263238;stroke-linecap:round;stroke-linejoin:round;stroke-miterlimit:10;" x1="454.798" y1="172.759" x2="472.76" y2="172.759"/>
			
				<line style="fill:none;stroke:#263238;stroke-linecap:round;stroke-linejoin:round;stroke-miterlimit:10;" x1="431.577" y1="172.759" x2="450.899" y2="172.759"/>
			
				<line style="fill:none;stroke:#263238;stroke-linecap:round;stroke-linejoin:round;stroke-miterlimit:10;" x1="447.586" y1="178.794" x2="472.76" y2="178.794"/>
			
				<line style="fill:none;stroke:#263238;stroke-linecap:round;stroke-linejoin:round;stroke-miterlimit:10;" x1="431.577" y1="178.794" x2="443.102" y2="178.794"/>
			
				<line style="fill:none;stroke:#263238;stroke-linecap:round;stroke-linejoin:round;stroke-miterlimit:10;" x1="459.866" y1="184.83" x2="472.76" y2="184.83"/>
			
				<line style="fill:none;stroke:#263238;stroke-linecap:round;stroke-linejoin:round;stroke-miterlimit:10;" x1="441.153" y1="184.83" x2="455.967" y2="184.83"/>
			
				<line style="fill:none;stroke:#263238;stroke-linecap:round;stroke-linejoin:round;stroke-miterlimit:10;" x1="431.577" y1="184.83" x2="439.009" y2="184.83"/>
		</g>
		<g>
			<path style="fill:#263238;" d="M377.334,133.078c0,0,1.243,0.678,2.826-1.808c1.582-2.487,2.26-7.686,0-11.754
				c-2.261-4.069-7.686-3.956-10.624-3.843c-2.939,0.113-4.634-3.391-12.207,0.113s-8.477,8.703-8.816,13.111
				c-0.339,4.408,2.26,8.477,0.791,10.963c-1.469,2.486-8.703,3.391-10.172,8.816s1.808,8.477,1.695,9.833
				c-0.113,1.356-1.808,3.391-4.86,4.973c-3.052,1.582-5.651,10.285,0.904,15.032c6.555,4.747,14.354,5.312,23.17,0.565
				c8.816-4.747,14.919-13.563,15.597-18.423c0.678-4.86-1.243-6.216,1.469-8.138c2.712-1.921,5.99-5.312,4.295-9.381
				c-1.695-4.069-4.521-7.12-4.521-8.138S377.334,133.078,377.334,133.078z"/>
			<path style="fill:#263238;" d="M347.753,201.334c0,0-3.92,5.801-4.547,16.306c-0.627,10.505,3.449,24.772,3.449,24.772h37.315
				c0,0,2.822-14.738,1.725-24.145c-1.098-9.407-3.136-13.484-3.136-13.484l-2.979-6.742l-30.887,0.784L347.753,201.334z"/>
			<path style="fill:#FFFFFF;stroke:#263238;stroke-linecap:round;stroke-linejoin:round;stroke-miterlimit:10;" d="M360.041,140.99
				c0,0-0.113,11.076-0.565,12.433c-0.452,1.356-2.486,3.391-8.251,5.877c0,0,3.73,23.622,4.408,30.629
				c0.678,7.007,0.678,11.641,0.678,11.641s8.364,1.243,12.432,1.017c4.069-0.226,8.929-2.713,8.929-2.713l-1.469-41.819
				l-6.329-3.73l-0.339-7.346c0,0-6.894-6.555-7.686-7.008C361.059,139.52,360.041,140.99,360.041,140.99z"/>
			<path style="fill:#263238;stroke:#263238;stroke-linecap:round;stroke-linejoin:round;stroke-miterlimit:10;" d="M362.491,143.48
				c0,0,4.86,7.839,7.369,10.191l-0.325-6.691l-6.731-5.381L362.491,143.48z"/>
			<path style="fill:#FFFFFF;stroke:#263238;stroke-linecap:round;stroke-linejoin:round;stroke-miterlimit:10;" d="
				M376.434,164.624l-24.169,1.373c1.157,7.536,2.922,19.325,3.368,23.932c0.678,7.007,0.678,11.641,0.678,11.641
				s8.364,1.243,12.432,1.017c4.069-0.226,8.929-2.713,8.929-2.713L376.434,164.624z"/>
			<g>
				<path style="fill:#FFFFFF;stroke:#263238;stroke-linecap:round;stroke-linejoin:round;stroke-miterlimit:10;" d="
					M373.484,125.209c0,0-6.533,8.908-13.461,11.086l-1.782,0.198c0,0-1.98-2.771-2.969-0.198c-0.99,2.573,0.99,5.543,2.178,6.137
					c1.188,0.594,2.375-0.198,2.375-0.198l0.792-0.792c0,0,3.959,4.553,6.731,6.137c2.771,1.584,3.959,2.771,5.345,1.386
					c1.386-1.386,3.761-4.949,4.355-8.908c0.594-3.959,0.594-10.096,0.594-10.096S374.078,125.209,373.484,125.209z"/>
				<path style="fill:none;stroke:#263238;stroke-linecap:round;stroke-linejoin:round;stroke-miterlimit:10;" d="M373.484,131.742
					c0,0-0.198,3.761,0.99,4.553c1.188,0.792,1.188,2.178,0.396,2.375c-0.792,0.198-1.782,0-1.782,0"/>
				<path style="fill:none;stroke:#263238;stroke-linecap:round;stroke-linejoin:round;stroke-miterlimit:10;" d="M368.535,140.056
					c0,0,1.782,1.98,5.147,0.99"/>
				<path style="fill:#263238;" d="M369.083,133.982c0,0.687-0.253,1.243-0.565,1.243s-0.565-0.557-0.565-1.243
					c0-0.687,0.253-1.243,0.565-1.243S369.083,133.296,369.083,133.982z"/>
				<path style="fill:#263238;" d="M376.543,133.417c0,0.687-0.253,1.243-0.565,1.243c-0.312,0-0.565-0.557-0.565-1.243
					c0-0.687,0.253-1.243,0.565-1.243C376.29,132.174,376.543,132.731,376.543,133.417z"/>
			</g>
			<g>
				<path style="fill:#FFFFFF;stroke:#263238;stroke-linecap:round;stroke-linejoin:round;stroke-miterlimit:10;" d="
					M330.434,221.022c0,0-0.766,4.514-1.022,5.536c-0.255,1.022,1.022,5.877,1.022,5.877s3.152,2.044,3.748,2.129
					s1.618-0.256,1.533-1.022c-0.085-0.766-1.278-0.766-1.278-0.766l-1.192-1.703l0.255-1.022c0,0,0.596,2.044,1.022,0.937
					s0.255-1.704,0.681-3.492c0.426-1.789-0.085-3.322-0.426-4.344c-0.341-1.022-0.767-2.215-0.767-2.215l0.426-1.959l-3.833-0.681
					L330.434,221.022z"/>
				
					<line style="fill:#FFFFFF;stroke:#263238;stroke-linecap:round;stroke-linejoin:round;stroke-miterlimit:10;" x1="333.501" y1="230.051" x2="333.756" y2="226.899"/>
			</g>
			<path style="fill:#FFFFFF;stroke:#263238;stroke-linecap:round;stroke-linejoin:round;stroke-miterlimit:10;" d="M356.22,156.493
				c0,0,5.017,43.273,4.39,56.757c0,0-10.975-0.47-18.187-2.038c0,0,8.153-21.636,8.31-23.988c0.157-2.352-1.881-5.958-1.881-5.958
				l-13.327,39.197l-5.331-1.568l13.797-55.502L356.22,156.493z"/>
			<g>
				<path style="fill:#FFFFFF;stroke:#263238;stroke-linecap:round;stroke-linejoin:round;stroke-miterlimit:10;" d="
					M409.902,169.066l1.874-1.363c0,0,2.3-0.681,3.066-1.618c0.767-0.937,0.852-1.192,0.852-1.192s1.959-0.17,2.726-1.533
					c0.767-1.363,0.596-5.196,0.596-5.196s1.192-1.533,1.107-2.385c-0.085-0.852-0.937-1.107-1.874-0.426
					c-0.937,0.681-1.448,1.022-1.448,1.022l-5.111,5.11l-1.704,1.363c0,0-0.426,1.618-0.937,2.47
					c-0.511,0.852-1.703,2.47-1.703,2.47L409.902,169.066z"/>
				<path style="fill:#FFFFFF;stroke:#263238;stroke-linecap:round;stroke-linejoin:round;stroke-miterlimit:10;" d="
					M407.646,166.998l1.915-2.957c0,0,1.192-3.237,1.448-3.748c0.255-0.511,3.151-3.066,3.407-3.322
					c0.255-0.255,1.533-2.811,2.129-3.066c0.596-0.256,0.937,0.766,0.937,1.789c0,1.022-2.214,4.259-2.214,4.259
					s-0.17,2.981-1.107,4.344c-0.937,1.363-2.896,1.874-2.896,1.874"/>
				
					<line style="fill:none;stroke:#263238;stroke-linecap:round;stroke-linejoin:round;stroke-miterlimit:10;" x1="424.211" y1="139" x2="413.564" y2="167.107"/>
				<path style="fill:none;stroke:#263238;stroke-linecap:round;stroke-linejoin:round;stroke-miterlimit:10;" d="M415.694,164.893
					c0,0-0.852,0.681-0.256-2.555"/>
				<path style="fill:none;stroke:#263238;stroke-linecap:round;stroke-linejoin:round;stroke-miterlimit:10;" d="M419.015,158.164
					c0,0-1.363,1.192-1.874,0.596"/>
			</g>
			<path style="fill:#FFFFFF;stroke:#263238;stroke-linecap:round;stroke-linejoin:round;stroke-miterlimit:10;" d="
				M372.369,156.023c0,0,2.822,34.963,2.822,44.057s0.157,12.7,0.157,12.7s1.568-0.627,4.39-1.098
				c2.822-0.47,6.585-2.038,6.585-2.038s-7.526-20.696-7.526-22.107c0-1.411,0.941-7.212,0.941-7.212s13.64,11.132,15.208,10.505
				c1.568-0.627,15.522-21.793,15.522-21.793l-2.822-2.038L392.437,178.6c0,0-10.191-19.128-10.818-19.441
				C380.992,158.845,372.369,156.023,372.369,156.023z"/>
			<polygon style="fill:#263238;stroke:#263238;stroke-linecap:round;stroke-linejoin:round;stroke-miterlimit:10;" points="
				379.738,180.325 381.462,171.231 383.03,182.677 			"/>
			
				<line style="fill:none;stroke:#263238;stroke-linecap:round;stroke-linejoin:round;stroke-miterlimit:10;" x1="348.851" y1="181.266" x2="345.558" y2="174.21"/>
		</g>
		
			<rect x="300.592" y="229.669" style="fill:#263238;stroke:#263238;stroke-linecap:round;stroke-linejoin:round;stroke-miterlimit:10;" width="215.593" height="15.37"/>
		
			<rect x="300.592" y="235.112" style="fill:#FFFFFF;stroke:#263238;stroke-linecap:round;stroke-linejoin:round;stroke-miterlimit:10;" width="215.593" height="4.484"/>
	</g>
	<g>
		<g>
			<polygon style="fill:#263238;stroke:#263238;stroke-linecap:round;stroke-linejoin:round;stroke-miterlimit:10;" points="
				547.31,470.286 538.505,380.36 531.635,381.867 544.073,470.286 			"/>
			<polygon style="fill:#263238;stroke:#263238;stroke-linecap:round;stroke-linejoin:round;stroke-miterlimit:10;" points="
				445.634,470.286 458.072,381.867 451.201,380.36 442.397,470.286 			"/>
			<path style="fill:#263238;stroke:#263238;stroke-linecap:round;stroke-linejoin:round;stroke-miterlimit:10;" d="M453.23,391.215
				l-4.417-105.154c-0.263-6.262,4.743-11.483,11.011-11.483H533.5c6.424,0,11.486,5.472,10.987,11.876l-8.155,104.761H453.23z"/>
			
				<rect x="445.537" y="368.167" style="fill:#FFFFFF;stroke:#263238;stroke-linecap:round;stroke-linejoin:round;stroke-miterlimit:10;" width="97.779" height="23.048"/>
			<path style="fill:#263238;stroke:#263238;stroke-linecap:round;stroke-linejoin:round;stroke-miterlimit:10;" d="M453.23,391.215
				h-7.401l-5.181-43.297c0-3.475,2.816-6.291,6.291-6.291l0,0c3.474,0,6.291,2.816,6.291,6.291V391.215z"/>
			<path style="fill:#263238;stroke:#263238;stroke-linecap:round;stroke-linejoin:round;stroke-miterlimit:10;" d="
				M536.332,391.215h7.401l5.181-43.297c0-3.475-2.817-6.291-6.291-6.291l0,0c-3.474,0-6.291,2.816-6.291,6.291V391.215z"/>
		</g>
		<g>
			<polygon style="fill:#FFFFFF;stroke:#263238;stroke-linecap:round;stroke-linejoin:round;stroke-miterlimit:10;" points="
				462.997,309.773 466.49,345.392 521.665,345.392 525.157,309.773 			"/>
			<g>
				<path style="fill:#FFFFFF;stroke:#263238;stroke-linecap:round;stroke-linejoin:round;stroke-miterlimit:10;" d="
					M485.435,251.432l-29.436,16.506l-15.956,48.693h114.993c0,0-18.432-47.318-22.008-49.794
					c-3.576-2.476-31.912-15.681-31.912-15.681L485.435,251.432z"/>
				<path style="fill:#FFFFFF;stroke:#263238;stroke-linecap:round;stroke-linejoin:round;stroke-miterlimit:10;" d="
					M484.335,247.306c0,0-2.476,1.926-3.026,3.851c-0.55,1.926-2.476,17.607-2.476,17.607s10.454-6.878,13.48-7.428
					c3.026-0.55,17.882,8.528,17.882,8.528s-3.576-17.882-6.327-21.733C501.116,244.28,489.012,242.904,484.335,247.306z"/>
				<path style="fill:#FFFFFF;stroke:#263238;stroke-linecap:round;stroke-linejoin:round;stroke-miterlimit:10;" d="
					M485.986,253.633c0,0,7.428,25.035,7.978,22.283c0.55-2.751,7.153-21.458,7.153-21.458S488.737,255.559,485.986,253.633z"/>
				<g>
					<path style="fill:#FFFFFF;stroke:#263238;stroke-linecap:round;stroke-linejoin:round;stroke-miterlimit:10;" d="
						M480.268,236.301c0,0,1.753,9.64,3.214,13.438c1.461,3.798,6.719,11.685,10.809,10.809c4.09-0.876,10.809-9.348,11.685-12.562
						c0.876-3.214,2.045-16.652,2.045-19.573c0-2.921-2.921-7.303-11.977-4.674C486.987,226.368,480.56,230.458,480.268,236.301z"/>
					<path style="fill:#263238;stroke:#263238;stroke-linecap:round;stroke-linejoin:round;stroke-miterlimit:10;" d="
						M485.986,253.633c0,0,2.951-4.615,9.041-3.545c6.09,1.069,7.774,3.239,7.774,3.239s-3.455,7.558-8.422,8.422
						C489.412,262.613,485.798,255.667,485.986,253.633z"/>
					<path style="fill:none;stroke:#FFFFFF;stroke-linecap:round;stroke-linejoin:round;stroke-miterlimit:10;" d="M490.06,253.543
						c0,0,2.807,1.512,7.99,0"/>
					<path style="fill:#263238;" d="M488.324,241.927c0,1.102-0.447,1.995-0.997,1.995c-0.551,0-0.997-0.893-0.997-1.995
						c0-1.101,0.446-1.994,0.997-1.994C487.878,239.933,488.324,240.826,488.324,241.927z"/>
					<path style="fill:#263238;" d="M500.382,241.927c0,1.102-0.447,1.995-0.997,1.995c-0.551,0-0.997-0.893-0.997-1.995
						c0-1.101,0.447-1.994,0.997-1.994C499.935,239.933,500.382,240.826,500.382,241.927z"/>
					<polyline style="fill:#FFFFFF;stroke:#263238;stroke-linecap:round;stroke-linejoin:round;stroke-miterlimit:10;" points="
						495.939,241.383 496.174,248.892 492.616,248.892 					"/>
					<path style="fill:#FFFFFF;stroke:#263238;stroke-linecap:round;stroke-linejoin:round;stroke-miterlimit:10;" d="
						M496.665,238.482c0,0,2.901-1.813,5.439-0.181"/>
					<path style="fill:#FFFFFF;stroke:#263238;stroke-linecap:round;stroke-linejoin:round;stroke-miterlimit:10;" d="
						M492.132,238.663c0,0-2.901-2.357-7.434-0.544"/>
				</g>
				<path style="fill:none;stroke:#263238;stroke-linecap:round;stroke-linejoin:round;stroke-miterlimit:10;" d="M473.069,228.186
					l1.557-12.977c0.779-6.492,4.945-12.083,10.943-14.686l0,0c4.418-1.917,9.412-2.026,13.909-0.302l0.19,0.073
					c6.99,2.679,11.659,9.326,11.809,16.811l0.21,10.472"/>
				<path style="fill:#FFFFFF;stroke:#263238;stroke-linecap:round;stroke-linejoin:round;stroke-miterlimit:10;" d="
					M477.297,239.911L477.297,239.911c-1.683,0.39-3.363-0.658-3.753-2.341l-1.413-6.094c-0.39-1.683,0.658-3.363,2.341-3.754l0,0
					c1.683-0.39,3.363,0.658,3.754,2.341l1.413,6.094C480.028,237.841,478.98,239.521,477.297,239.911z"/>
				<path style="fill:#FFFFFF;stroke:#263238;stroke-linecap:round;stroke-linejoin:round;stroke-miterlimit:10;" d="
					M510.772,240.056L510.772,240.056c-1.723-0.126-3.017-1.626-2.891-3.348l0.458-6.239c0.126-1.723,1.626-3.017,3.349-2.891l0,0
					c1.723,0.126,3.017,1.626,2.891,3.349l-0.458,6.239C513.995,238.888,512.495,240.182,510.772,240.056z"/>
				<path style="fill:#263238;stroke:#263238;stroke-linecap:round;stroke-linejoin:round;stroke-miterlimit:10;" d="M502.47,226.66
					c0,0-4.382,4.09-11.685,9.056c-7.303,4.966-13.73,2.921-13.438,1.461c0.292-1.461,1.461-3.505,1.461-3.505
					s-2.629,0.876-3.214-4.09c-0.584-4.966-1.753-16.067,3.798-20.449c5.551-4.382,18.112-6.135,23.663-4.382
					c5.551,1.753,7.888,9.932,7.888,13.73c0,3.798-1.168,11.393-1.168,11.393s1.168,1.753-2.045,3.213
					c-3.214,1.461-5.55,0-4.966-2.629C503.346,227.829,502.47,226.66,502.47,226.66z"/>
				<path style="fill:#FFFFFF;stroke:#263238;stroke-linecap:round;stroke-linejoin:round;stroke-miterlimit:10;" d="
					M444.995,303.427c0,0,3.301-1.375,9.079,0.825c5.777,2.201,17.331,5.502,18.982,5.502s11.004,0.825,11.004,0.825l0.275,6.052
					c0,0-41.816,0.825-44.292,0C437.567,315.807,438.393,307.829,444.995,303.427z"/>
				<path style="fill:#FFFFFF;stroke:#263238;stroke-linecap:round;stroke-linejoin:round;stroke-miterlimit:10;" d="
					M474.362,313.238c0,0,7.34-6.32,9.582-7.747c2.243-1.427,8.563,8.563,8.767,9.378c0.204,0.815-1.631,1.223-1.631,1.223
					s-4.893-1.019-5.913-1.223c-1.019-0.204-2.039,0.815-4.689,0.815c-2.65,0-7.34,0-7.34,0"/>
				<path style="fill:#FFFFFF;stroke:#263238;stroke-linecap:round;stroke-linejoin:round;stroke-miterlimit:10;" d="
					M551.277,303.427c0,0-3.301-1.375-9.078,0.825c-5.777,2.201-17.331,5.502-18.982,5.502c-1.651,0-11.004,0.825-11.004,0.825
					l-0.275,6.052c0,0,41.816,0.825,44.292,0C558.705,315.807,557.879,307.829,551.277,303.427z"/>
				<path style="fill:#FFFFFF;stroke:#263238;stroke-linecap:round;stroke-linejoin:round;stroke-miterlimit:10;" d="
					M519.436,313.238c0,0-7.34-6.32-9.582-7.747c-2.243-1.427-8.563,8.563-8.767,9.378c-0.204,0.815,1.631,1.223,1.631,1.223
					s4.893-1.019,5.913-1.223c1.019-0.204,2.039,0.815,4.689,0.815c2.65,0,7.34,0,7.34,0"/>
			</g>
			
				<rect x="466.49" y="345.392" style="fill:#FFFFFF;stroke:#263238;stroke-linecap:round;stroke-linejoin:round;stroke-miterlimit:10;" width="53.08" height="23.048"/>
			<path style="fill:none;stroke:#263238;stroke-linecap:round;stroke-linejoin:round;stroke-miterlimit:10;" d="M471.379,343.995
				c0,0,15.365,4.191,18.159,15.365"/>
			<path style="fill:none;stroke:#263238;stroke-linecap:round;stroke-linejoin:round;stroke-miterlimit:10;" d="M516.078,345.392
				c0,0-12.572-0.698-16.762,13.27"/>
		</g>
		<g>
			<path style="fill:#FFFFFF;stroke:#263238;stroke-linecap:round;stroke-linejoin:round;stroke-miterlimit:10;" d="
				M477.302,358.637c0.531-8.438-5.149-16.3-13.486-17.708c-2.521-0.426-5.184-0.251-7.803,0.971
				c-10.476,4.889-0.248,119.179-0.248,119.179h8.381C464.146,461.079,475.108,393.494,477.302,358.637z"/>
			<polygon style="fill:#FFFFFF;stroke:#263238;stroke-linecap:round;stroke-linejoin:round;stroke-miterlimit:10;" points="
				454.847,454.26 452.371,464.868 444.037,470.172 465.252,470.172 465.606,454.26 			"/>
			<path style="fill:#FFFFFF;stroke:#263238;stroke-linecap:round;stroke-linejoin:round;stroke-miterlimit:10;" d="
				M452.371,464.868c0,0,5.304-3.41,9.092,0"/>
		</g>
		<g>
			<path style="fill:#FFFFFF;stroke:#263238;stroke-linecap:round;stroke-linejoin:round;stroke-miterlimit:10;" d="
				M512.264,358.637c-0.531-8.438,5.149-16.3,13.486-17.708c2.521-0.426,5.183-0.251,7.803,0.971
				c10.476,4.889,0.248,119.179,0.248,119.179h-8.381C525.42,461.079,514.457,393.494,512.264,358.637z"/>
			<polygon style="fill:#FFFFFF;stroke:#263238;stroke-linecap:round;stroke-linejoin:round;stroke-miterlimit:10;" points="
				534.719,454.26 537.194,464.868 545.529,470.172 524.313,470.172 523.96,454.26 			"/>
			<path style="fill:#FFFFFF;stroke:#263238;stroke-linecap:round;stroke-linejoin:round;stroke-miterlimit:10;" d="
				M537.194,464.868c0,0-5.304-3.41-9.092,0"/>
		</g>
	</g>
	<path style="fill:#0169EE;" d="M528.862,317.024h-68.473v-38.163c0-1.381,1.119-2.5,2.5-2.5h63.473c1.381,0,2.5,1.119,2.5,2.5
		V317.024z"/>
	<g>
		<g>
			<path style="fill:none;stroke:#263238;stroke-linecap:round;stroke-linejoin:round;stroke-miterlimit:10;" d="M560.91,276.692
				c0.363-0.477,0.772-0.891,1.181-1.218"/>
			<path style="fill:none;stroke:#263238;stroke-linecap:round;stroke-linejoin:round;stroke-miterlimit:10;" d="M564.27,290.733
				c0,0,3.057-3.206-1.739-6.258c-2.909-1.851-3.253-4.126-2.588-6.02"/>
			<path style="fill:none;stroke:#263238;stroke-linecap:round;stroke-linejoin:round;stroke-miterlimit:10;" d="M569.385,283.662
				c0,0,3.717,1.742,2.556,6.97"/>
		</g>
		
			<rect x="562.119" y="293.245" style="fill:#FFFFFF;stroke:#263238;stroke-linecap:round;stroke-linejoin:round;stroke-miterlimit:10;" width="15.643" height="23.114"/>
		<g>
			<path style="fill:#FFFFFF;stroke:#263238;stroke-linecap:round;stroke-linejoin:round;stroke-miterlimit:10;" d="
				M577.062,313.213h-1.634c-0.713,0-1.29-0.577-1.29-1.29c0-0.713,0.577-1.29,1.29-1.29h1.634c1.348,0,2.445-1.097,2.445-2.445
				v-5.604c0-1.348-1.097-2.445-2.445-2.445h-2.101c-0.713,0-1.29-0.578-1.29-1.29c0-0.712,0.577-1.29,1.29-1.29h2.101
				c2.772,0,5.025,2.255,5.025,5.025v5.604C582.087,310.959,579.834,313.213,577.062,313.213z"/>
		</g>
	</g>
	
		<rect x="388.921" y="296.849" style="fill:#263238;stroke:#263238;stroke-linecap:round;stroke-linejoin:round;stroke-miterlimit:10;" width="13.902" height="19.783"/>
	<g>
		<g>
			<polygon style="fill:#263238;stroke:#263238;stroke-linecap:round;stroke-linejoin:round;stroke-miterlimit:10;" points="
				618.226,470.286 610.091,328.435 603.143,328.435 615.064,470.286 			"/>
			<polygon style="fill:#263238;stroke:#263238;stroke-linecap:round;stroke-linejoin:round;stroke-miterlimit:10;" points="
				643.788,470.286 635.653,328.435 628.692,328.435 640.613,470.286 			"/>
			<polygon style="fill:#263238;stroke:#263238;stroke-linecap:round;stroke-linejoin:round;stroke-miterlimit:10;" points="
				378.73,470.286 388.868,328.435 381.935,328.435 375.589,470.286 			"/>
			<polygon style="fill:#263238;stroke:#263238;stroke-linecap:round;stroke-linejoin:round;stroke-miterlimit:10;" points="
				350.133,470.286 360.271,328.435 353.351,328.435 347.005,470.286 			"/>
		</g>
		<g>
			
				<rect x="348.818" y="320.431" style="fill:#FFFFFF;stroke:#263238;stroke-linecap:round;stroke-linejoin:round;stroke-miterlimit:10;" width="295.741" height="12.408"/>
			
				<rect x="348.818" y="320.431" style="fill:#263238;stroke:#263238;stroke-linecap:round;stroke-linejoin:round;stroke-miterlimit:10;" width="295.741" height="4.256"/>
			
				<rect x="344.966" y="316.302" style="fill:#FFFFFF;stroke:#263238;stroke-linecap:round;stroke-linejoin:round;stroke-miterlimit:10;" width="303.444" height="4.73"/>
		</g>
	</g>
	<g>
		
			<rect x="533.473" y="107.06" style="fill:#FFFFFF;stroke:#263238;stroke-linecap:round;stroke-linejoin:round;stroke-miterlimit:10;" width="88.845" height="56.861"/>
		
			<rect x="533.473" y="157.587" style="fill:#263238;stroke:#263238;stroke-linecap:round;stroke-linejoin:round;stroke-miterlimit:10;" width="88.845" height="6.334"/>
		
			<rect x="533.473" y="159.829" style="fill:#FFFFFF;stroke:#263238;stroke-linecap:round;stroke-linejoin:round;stroke-miterlimit:10;" width="88.845" height="1.848"/>
		<g>
			<path style="fill:#0169EE;" d="M589.437,135.212c0-7.226-5.857-13.084-13.083-13.084c-7.226,0-13.083,5.858-13.083,13.084
				s5.857,13.083,13.083,13.083C583.579,148.295,589.437,142.438,589.437,135.212z"/>
			<polygon style="fill:#FFFFFF;" points="583.935,135.495 572.552,128.923 572.552,142.067 			"/>
		</g>
	</g>
	<g>
		
			<rect x="533.473" y="181.903" style="fill:#FFFFFF;stroke:#263238;stroke-linecap:round;stroke-linejoin:round;stroke-miterlimit:10;" width="88.845" height="56.861"/>
		
			<rect x="533.473" y="232.43" style="fill:#263238;stroke:#263238;stroke-linecap:round;stroke-linejoin:round;stroke-miterlimit:10;" width="88.845" height="6.334"/>
		
			<rect x="533.473" y="234.673" style="fill:#FFFFFF;stroke:#263238;stroke-linecap:round;stroke-linejoin:round;stroke-miterlimit:10;" width="88.845" height="1.848"/>
		<g>
			<path style="fill:#0169EE;" d="M589.437,210.055c0-7.226-5.857-13.083-13.083-13.083c-7.226,0-13.083,5.858-13.083,13.083
				c0,7.226,5.857,13.084,13.083,13.084C583.579,223.139,589.437,217.281,589.437,210.055z"/>
			<polygon style="fill:#FFFFFF;" points="583.935,210.338 572.552,203.766 572.552,216.91 			"/>
		</g>
	</g>
	<g>
		<rect x="249.153" y="271.225" style="fill:#F0AE00;" width="48.782" height="58.662"/>
		<g>
			<rect x="254.402" y="262.58" style="fill:#263238;" width="4.322" height="14.82"/>
			<rect x="271.383" y="262.58" style="fill:#263238;" width="4.322" height="14.82"/>
			<rect x="288.364" y="262.58" style="fill:#263238;" width="4.322" height="14.82"/>
		</g>
		<g>
			<g>
				<path style="fill:#FFFFFF;" d="M273.089,315.717v3.99h-15.991v-3.175l8.162-7.708c1.874-1.784,2.207-2.872,2.207-3.901
					c0-1.662-1.149-2.629-3.386-2.629c-1.813,0-3.355,0.695-4.383,2.116l-3.567-2.298c1.632-2.388,4.595-3.929,8.404-3.929
					c4.716,0,7.86,2.418,7.86,6.257c0,2.056-0.574,3.931-3.537,6.681l-4.867,4.595H273.089z"/>
				<path style="fill:#FFFFFF;" d="M291.103,313.057c0,3.749-2.751,7.013-8.797,7.013c-2.933,0-6.016-0.815-8.071-2.267l1.935-3.749
					c1.602,1.21,3.809,1.905,6.016,1.905c2.448,0,3.96-1.027,3.96-2.75c0-1.663-1.088-2.751-4.927-2.751h-5.411l1.088-11.911h12.908
					v3.931h-8.827l-0.332,4.02h1.723C288.624,306.497,291.103,309.308,291.103,313.057z"/>
			</g>
		</g>
		<g>
			<g>
				<path style="fill:#FFFFFF;" d="M272.252,282.243l-3.613,11.046h-2.746l-2.43-7.48l-2.509,7.48h-2.73l-3.629-11.046h2.651
					l2.493,7.763l2.604-7.763h2.367l2.525,7.826l2.572-7.826H272.252z"/>
				<path style="fill:#FFFFFF;" d="M281.147,289.738h-6.422c0.236,1.057,1.136,1.705,2.43,1.705c0.9,0,1.547-0.268,2.13-0.82
					l1.31,1.419c-0.788,0.899-1.972,1.373-3.503,1.373c-2.935,0-4.844-1.846-4.844-4.371c0-2.541,1.941-4.371,4.529-4.371
					c2.493,0,4.418,1.673,4.418,4.402C281.194,289.266,281.162,289.534,281.147,289.738z M274.693,288.303h4.182
					c-0.174-1.073-0.978-1.768-2.083-1.768C275.671,286.535,274.866,287.214,274.693,288.303z"/>
				<path style="fill:#FFFFFF;" d="M291.488,281.581v11.708h-2.351v-0.979c-0.615,0.742-1.515,1.105-2.651,1.105
					c-2.399,0-4.245-1.705-4.245-4.371c0-2.667,1.846-4.371,4.245-4.371c1.041,0,1.925,0.331,2.54,1.025v-4.118H291.488z
					 M289.073,289.045c0-1.468-0.947-2.351-2.162-2.351c-1.231,0-2.177,0.883-2.177,2.351c0,1.468,0.947,2.351,2.177,2.351
					C288.127,291.396,289.073,290.513,289.073,289.045z"/>
			</g>
		</g>
	</g>
	<g>
		<polygon style="fill:#FFFFFF;stroke:#263238;stroke-linecap:round;stroke-linejoin:round;stroke-miterlimit:10;" points="
			659.311,271.175 634.452,271.175 634.452,241.931 638.699,237.854 659.311,237.854 		"/>
		<polygon style="fill:#263238;" points="634.452,242.766 642.412,242.766 639.195,239.427 639.195,241.931 634.531,241.931 
			634.452,242.056 		"/>
		
			<line style="fill:none;stroke:#263238;stroke-linecap:round;stroke-linejoin:round;stroke-miterlimit:10;" x1="639.136" y1="246.795" x2="655.208" y2="246.795"/>
		
			<line style="fill:none;stroke:#263238;stroke-linecap:round;stroke-linejoin:round;stroke-miterlimit:10;" x1="639.136" y1="250.841" x2="655.208" y2="250.841"/>
		
			<line style="fill:none;stroke:#263238;stroke-linecap:round;stroke-linejoin:round;stroke-miterlimit:10;" x1="639.136" y1="254.886" x2="655.208" y2="254.886"/>
		
			<line style="fill:none;stroke:#263238;stroke-linecap:round;stroke-linejoin:round;stroke-miterlimit:10;" x1="639.136" y1="258.931" x2="655.208" y2="258.931"/>
		
			<line style="fill:none;stroke:#263238;stroke-linecap:round;stroke-linejoin:round;stroke-miterlimit:10;" x1="639.136" y1="262.977" x2="655.208" y2="262.977"/>
	</g>
	<g>
		<polygon style="fill:#FFFFFF;stroke:#263238;stroke-linecap:round;stroke-linejoin:round;stroke-miterlimit:10;" points="
			690.789,292.715 665.931,292.715 665.931,263.471 670.177,259.395 690.789,259.395 		"/>
		<polygon style="fill:#263238;" points="665.931,264.306 673.89,264.306 670.674,260.968 670.674,263.471 666.01,263.471 
			665.931,263.596 		"/>
		
			<line style="fill:none;stroke:#263238;stroke-linecap:round;stroke-linejoin:round;stroke-miterlimit:10;" x1="670.615" y1="268.336" x2="686.686" y2="268.336"/>
		
			<line style="fill:none;stroke:#263238;stroke-linecap:round;stroke-linejoin:round;stroke-miterlimit:10;" x1="670.615" y1="272.381" x2="686.686" y2="272.381"/>
		
			<line style="fill:none;stroke:#263238;stroke-linecap:round;stroke-linejoin:round;stroke-miterlimit:10;" x1="670.615" y1="276.427" x2="686.686" y2="276.427"/>
		
			<line style="fill:none;stroke:#263238;stroke-linecap:round;stroke-linejoin:round;stroke-miterlimit:10;" x1="670.615" y1="280.472" x2="686.686" y2="280.472"/>
		
			<line style="fill:none;stroke:#263238;stroke-linecap:round;stroke-linejoin:round;stroke-miterlimit:10;" x1="670.615" y1="284.517" x2="686.686" y2="284.517"/>
	</g>
	<g>
		<g>
			<path style="fill:#263238;" d="M264.453,374.997c2.109,0.921,7.266,0.805,7.27,0.805c0.053-0.001-1.108-3.376-1.206-3.581
				c-1.131-2.367-4.71-6.276-7.621-5.882c-2.097,0.283-3.264,2.383-2.791,4.357C260.588,372.714,262.657,374.212,264.453,374.997z"
				/>
			<path style="fill:#263238;" d="M266.233,389.935c2.187,0.319,6.79-1.016,7.156-1.124c0.727,2.577,1.681,5.161,2.792,7.724
				c0.633,1.466,1.316,2.922,2.02,4.374c-0.42-0.615-0.8-1.162-0.861-1.233c-1.717-1.984-6.2-4.809-8.904-3.66
				c-1.949,0.827-2.519,3.159-1.541,4.939c0.998,1.818,3.391,2.717,5.33,2.999c1.968,0.287,5.915-0.772,6.956-1.067
				c0.276,0.554,0.545,1.111,0.823,1.663c1.332,2.654,2.674,5.296,3.91,7.929c0.436,0.927,0.831,1.856,1.231,2.785
				c-0.374-0.546-0.693-1.003-0.749-1.068c-1.717-1.984-6.2-4.809-8.904-3.66c-1.948,0.827-2.519,3.16-1.541,4.94
				c1,1.818,3.391,2.717,5.33,2.999c1.878,0.274,5.529-0.671,6.768-1.015c0.38,0.963,0.762,1.927,1.087,2.877
				c0.207,0.654,0.453,1.269,0.623,1.937c0.184,0.658,0.365,1.31,0.546,1.955c0.301,1.255,0.62,2.549,0.883,3.781
				c0.189,0.855,0.354,1.674,0.522,2.499c-0.423-0.928-1.291-2.728-1.38-2.87c-1.395-2.221-5.399-5.692-8.247-4.967
				c-2.051,0.523-2.969,2.742-2.271,4.649c0.712,1.948,2.94,3.199,4.814,3.772c2.063,0.63,6.631,0.054,7.202-0.021
				c0.274,1.365,0.527,2.695,0.746,3.954c0.49,2.778,0.86,5.269,1.14,7.377h1.926c-0.336-2.181-0.775-4.779-1.355-7.697
				c-0.272-1.387-0.591-2.864-0.933-4.377c0.343-0.136,2.292-0.924,4.018-1.889c1.504,1.629,5.357,3.534,5.856,3.777
				c-0.524,1.29-1.047,2.539-1.559,3.71c-1.066,2.452-2.078,4.627-2.971,6.477h2.083c0.768-1.705,1.612-3.647,2.492-5.799
				c0.538-1.307,1.087-2.715,1.637-4.166c0.553,0.116,5.075,1.034,7.182,0.558c1.911-0.432,4.226-1.513,5.082-3.403
				c0.838-1.85,0.088-4.131-1.92-4.805c-2.784-0.936-7.036,2.227-8.594,4.339c-0.092,0.124-0.938,1.587-1.457,2.518
				c0.221-0.594,0.443-1.168,0.664-1.782c0.445-1.211,0.853-2.434,1.296-3.747c0.192-0.642,0.386-1.29,0.582-1.945
				c0.208-0.645,0.345-1.353,0.523-2.035c0.379-1.591,0.685-3.221,0.957-4.869c1.062,0.386,4.853,1.705,6.816,1.567
				c1.955-0.138,4.407-0.855,5.539-2.594c1.108-1.701,0.713-4.07-1.168-5.041c-2.612-1.347-7.293,1.136-9.153,2.987
				c-0.116,0.115-1.301,1.593-1.936,2.418c0.156-0.992,0.316-1.982,0.441-2.991c0.362-2.913,0.637-5.873,0.925-8.825
				c0.087-0.904,0.186-1.804,0.281-2.705c0.377,0.142,4.848,1.806,7.048,1.652c1.955-0.137,4.407-0.855,5.539-2.594
				c1.108-1.701,0.713-4.07-1.169-5.04c-2.611-1.347-7.293,1.136-9.152,2.986c-0.14,0.139-1.842,2.269-2.249,2.831
				c0.21-1.985,0.437-3.961,0.741-5.9c0.414-2.675,0.97-5.277,1.693-7.759c0.175,0.067,4.835,1.825,7.087,1.667
				c1.955-0.137,4.407-0.856,5.539-2.594c1.108-1.702,0.713-4.07-1.168-5.041c-2.612-1.347-7.292,1.136-9.152,2.987
				c-0.145,0.145-1.976,2.437-2.278,2.876c0.044-0.147,0.072-0.305,0.118-0.452c0.806-2.639,1.919-5.095,3.074-7.342
				c0.668-1.308,1.38-2.52,2.099-3.684c0.835,0.417,4.668,2.278,6.711,2.36c1.958,0.078,4.474-0.366,5.79-1.97
				c1.289-1.57,1.156-3.968-0.607-5.139c-2.448-1.625-7.373,0.328-9.425,1.964c-0.111,0.089-1.145,1.119-1.888,1.879
				c0.332-0.521,0.666-1.064,0.994-1.556c1.229-1.851,2.469-3.47,3.578-4.896c0.637-0.805,1.229-1.521,1.791-2.184
				c1.032-0.018,5.189-0.144,7.007-0.997c1.773-0.833,3.802-2.387,4.231-4.416c0.42-1.987-0.803-4.054-2.907-4.281
				c-2.921-0.315-6.393,3.689-7.46,6.085c-0.092,0.208-1.162,3.613-1.109,3.612c0,0,0.05,0,0.062-0.001
				c-0.553,0.628-1.138,1.307-1.763,2.063c-1.143,1.404-2.421,3-3.695,4.832c-1.278,1.827-2.615,3.848-3.832,6.103
				c-1.222,2.26-2.392,4.699-3.273,7.368c-0.01,0.03-0.016,0.063-0.027,0.093c0.015-0.861-0.023-3.269-0.047-3.453
				c-0.337-2.602-2.518-7.432-5.408-7.966c-2.081-0.384-3.844,1.246-4.01,3.271c-0.169,2.067,1.329,4.136,2.791,5.442
				c1.648,1.472,6.223,2.898,6.588,3.011c-0.815,2.549-1.445,5.232-1.933,7.981c-0.28,1.572-0.514,3.164-0.728,4.763
				c-0.011-0.745-0.026-1.41-0.038-1.503c-0.337-2.602-2.518-7.431-5.408-7.965c-2.082-0.385-3.844,1.246-4.01,3.27
				c-0.17,2.067,1.329,4.136,2.791,5.441c1.483,1.324,5.359,2.619,6.389,2.947c-0.076,0.614-0.158,1.227-0.231,1.842
				c-0.353,2.949-0.691,5.893-1.112,8.77c-0.147,1.014-0.33,2.007-0.51,3.002c-0.01-0.661-0.025-1.218-0.036-1.302
				c-0.337-2.602-2.518-7.431-5.407-7.966c-2.082-0.384-3.845,1.246-4.011,3.271c-0.169,2.066,1.33,4.136,2.792,5.441
				c1.415,1.264,4.982,2.491,6.204,2.887c-0.214,1.013-0.427,2.028-0.681,3c-0.188,0.66-0.323,1.307-0.549,1.96
				c-0.21,0.65-0.417,1.294-0.623,1.931c-0.442,1.213-0.889,2.468-1.349,3.641c-0.314,0.818-0.629,1.592-0.943,2.372
				c0.159-1.008,0.429-2.987,0.432-3.155c0.04-1.742-0.579-4.576-1.811-6.568c0.008-0.257-0.007-0.514-0.048-0.769
				c-0.322-2.005-2.206-3.495-4.252-2.95c-2.839,0.756-4.64,5.74-4.774,8.359c-0.008,0.155,0.093,1.841,0.174,2.905
				c-0.143-0.618-0.275-1.219-0.43-1.853c-0.298-1.256-0.632-2.5-0.986-3.841c-0.194-0.641-0.39-1.288-0.588-1.943
				c-0.182-0.652-0.458-1.318-0.686-1.986c-0.562-1.535-1.205-3.064-1.888-4.589c1.1-0.263,4.988-1.255,6.55-2.453
				c1.555-1.193,3.203-3.145,3.189-5.218c-0.015-2.031-1.651-3.789-3.755-3.56c-2.921,0.317-5.456,4.97-5.986,7.54
				c-0.033,0.16-0.206,2.047-0.281,3.085c-0.417-0.913-0.83-1.828-1.282-2.739c-1.305-2.629-2.708-5.25-4.097-7.871
				c-0.426-0.803-0.84-1.607-1.259-2.411c0.392-0.09,5.04-1.168,6.79-2.511c1.555-1.192,3.204-3.144,3.189-5.219
				c-0.015-2.03-1.651-3.788-3.755-3.559c-2.921,0.317-5.456,4.97-5.986,7.54c-0.04,0.194-0.285,2.908-0.313,3.602
				c-0.92-1.77-1.82-3.544-2.637-5.329c-1.13-2.46-2.103-4.937-2.868-7.406c0.183-0.041,5.039-1.146,6.831-2.52
				c1.555-1.193,3.204-3.145,3.189-5.219c-0.014-2.031-1.651-3.788-3.755-3.56c-2.921,0.317-5.456,4.971-5.986,7.54
				c-0.042,0.202-0.304,3.123-0.313,3.655c-0.045-0.147-0.108-0.294-0.152-0.441c-0.783-2.647-1.21-5.308-1.487-7.82
				c-0.164-1.459-0.238-2.863-0.281-4.23c0.925-0.113,5.15-0.675,6.899-1.734c1.677-1.015,3.53-2.774,3.743-4.837
				c0.208-2.02-1.225-3.947-3.342-3.951c-2.938-0.005-5.969,4.341-6.778,6.837c-0.044,0.136-0.339,1.565-0.538,2.609
				c-0.01-0.617-0.031-1.255-0.029-1.846c0.004-2.222,0.144-4.256,0.283-6.057c0.088-1.024,0.187-1.947,0.289-2.81
				c0.85-0.585,4.248-2.983,5.294-4.698c1.02-1.674,1.854-4.088,1.092-6.017c-0.746-1.889-2.906-2.938-4.786-1.967
				c-2.61,1.349-3.297,6.604-2.865,9.192c0.038,0.223,1.024,3.654,1.068,3.624c0,0,0.042-0.029,0.051-0.035
				c-0.115,0.828-0.228,1.719-0.332,2.693c-0.179,1.801-0.365,3.838-0.416,6.069c-0.058,2.229-0.059,4.652,0.172,7.204
				c0.227,2.558,0.596,5.238,1.335,7.95c0.008,0.031,0.021,0.062,0.03,0.092c-0.462-0.726-1.823-2.713-1.945-2.854
				c-1.716-1.984-6.2-4.809-8.904-3.661c-1.948,0.828-2.519,3.161-1.541,4.94C261.903,388.754,264.294,389.652,266.233,389.935z"/>
			<path style="fill:#263238;" d="M316.617,376.131c0.045,0.028,0.938-3.428,0.969-3.652c0.361-2.598-0.467-7.832-3.113-9.11
				c-1.906-0.921-4.036,0.187-4.73,2.096c-0.71,1.949,0.19,4.34,1.255,5.985C312.248,373.381,316.613,376.129,316.617,376.131z"/>
		</g>
		<polygon style="fill:#FFFFFF;stroke:#263238;stroke-linecap:round;stroke-linejoin:round;stroke-miterlimit:10;" points="
			309.938,470.286 281.749,470.286 278.225,438.979 313.461,438.979 		"/>
		<g>
			<polygon style="fill:#263238;" points="278.87,444.715 279.212,447.748 312.474,447.748 312.816,444.715 			"/>
			<polygon style="fill:#263238;" points="311.723,454.421 312.065,451.388 279.621,451.388 279.963,454.421 			"/>
		</g>
	</g>
	<g>
		
			<line style="fill:none;stroke:#263238;stroke-linecap:round;stroke-linejoin:round;stroke-miterlimit:10;" x1="190.36" y1="470.286" x2="165.36" y2="470.286"/>
		
			<line style="fill:none;stroke:#263238;stroke-linecap:round;stroke-linejoin:round;stroke-miterlimit:10;" x1="675.36" y1="470.286" x2="210.36" y2="470.286"/>
		
			<line style="fill:none;stroke:#263238;stroke-linecap:round;stroke-linejoin:round;stroke-miterlimit:10;" x1="705.36" y1="470.286" x2="689.36" y2="470.286"/>
	</g>
</g>
</svg>
